<svg width="116" height="28" viewBox="0 0 116 28" fill="none" xmlns="http://www.w3.org/2000/svg">
<path d="M19.5315 15.1341L14.1406 24.3669L8.74969 15.1341H19.5315ZM20.9757 14.3088H7.29965L14.1406 26L20.9757 14.3088Z" fill="#263238"/>
<path d="M14.1407 2.90576L20.1573 13.1889H8.11249L14.1407 2.90576Z" fill="#4CAF4F"/>
<path d="M21.7067 15.4341L27.7291 26H15.3978L21.5196 15.4341H21.7067Z" fill="#4CAF4F"/>
<path d="M23.595 14.7496L34.2863 14.6974L28.8954 24.0347L23.595 14.7496ZM22.1657 13.9244L28.87 25.6945L35.711 13.8456L22.1657 13.9244Z" fill="#263238"/>
<path d="M23.7452 13.2791L35.7025 13.3771L29.6799 2.99989L23.7452 13.2791Z" fill="#4CAF4F"/>
<path d="M26.9771 2.82521L21.5861 12.0581L16.1952 2.82521H26.9771ZM28.4213 2H14.7452L21.5861 13.6912L28.4213 2Z" fill="#263238"/>
<path d="M48.3559 21.2202C47.6646 21.2202 47.0419 21.0971 46.488 20.8509C45.9387 20.5999 45.5031 20.2306 45.1811 19.7429C44.8639 19.2552 44.7053 18.6539 44.7053 17.9389C44.7053 17.3234 44.8189 16.8144 45.0462 16.4119C45.2735 16.0095 45.5836 15.6875 45.9766 15.446C46.3696 15.2045 46.8123 15.0223 47.3047 14.8991C47.8019 14.7713 48.3156 14.679 48.8459 14.6222C49.4851 14.5559 50.0036 14.4967 50.4013 14.4446C50.799 14.3878 51.0879 14.3026 51.2678 14.1889C51.4524 14.0705 51.5448 13.8883 51.5448 13.642V13.5994C51.5448 13.0644 51.3862 12.6501 51.0689 12.3565C50.7517 12.063 50.2948 11.9162 49.6982 11.9162C49.0685 11.9162 48.5689 12.0535 48.1996 12.3281C47.835 12.6027 47.5888 12.9271 47.461 13.3011L45.0604 12.9602C45.2498 12.2973 45.5623 11.7434 45.9979 11.2983C46.4335 10.8485 46.9662 10.5123 47.5959 10.2898C48.2256 10.0625 48.9217 9.94886 49.684 9.94886C50.2096 9.94886 50.7328 10.0104 51.2536 10.1335C51.7744 10.2566 52.2503 10.4602 52.6811 10.7443C53.112 11.0237 53.4577 11.4048 53.7181 11.8878C53.9832 12.3707 54.1158 12.9744 54.1158 13.6989V21H51.6442V19.5014H51.559C51.4027 19.8045 51.1826 20.0885 50.8985 20.3537C50.6191 20.6141 50.2664 20.8248 49.8402 20.9858C49.4188 21.142 48.924 21.2202 48.3559 21.2202ZM49.0235 19.331C49.5396 19.331 49.987 19.2292 50.3658 19.0256C50.7446 18.8172 51.0358 18.5426 51.2394 18.2017C51.4477 17.8608 51.5519 17.4891 51.5519 17.0866V15.8011C51.4714 15.8674 51.3341 15.929 51.1399 15.9858C50.9506 16.0426 50.7375 16.0923 50.5007 16.1349C50.264 16.1776 50.0296 16.2154 49.7976 16.2486C49.5656 16.2817 49.3644 16.3101 49.1939 16.3338C48.8104 16.3859 48.4671 16.4711 48.1641 16.5895C47.8611 16.7079 47.622 16.8736 47.4468 17.0866C47.2716 17.295 47.184 17.5649 47.184 17.8963C47.184 18.3698 47.3568 18.7273 47.7024 18.9688C48.0481 19.2102 48.4884 19.331 49.0235 19.331ZM56.701 21V10.0909H59.1939V11.9091H59.3076C59.5064 11.2794 59.8473 10.794 60.3303 10.4531C60.818 10.1075 61.3743 9.93466 61.9993 9.93466C62.1414 9.93466 62.3 9.94176 62.4752 9.95597C62.6551 9.96544 62.8042 9.98201 62.9226 10.0057V12.3707C62.8137 12.3329 62.6409 12.2997 62.4042 12.2713C62.1721 12.2382 61.9472 12.2216 61.7294 12.2216C61.2607 12.2216 60.8393 12.3234 60.4652 12.527C60.0959 12.7259 59.8047 13.0028 59.5917 13.358C59.3786 13.7131 59.2721 14.1226 59.2721 14.5866V21H56.701ZM66.9461 6.45455L70.1492 11.7812H70.2628L73.4801 6.45455H76.4844L72.0029 13.7273L76.5554 21H73.5015L70.2628 15.7088H70.1492L66.9105 21H63.8708L68.4659 13.7273L63.9276 6.45455H66.9461ZM83.8868 10.0909V12.0795H77.6154V10.0909H83.8868ZM79.1637 7.47727H81.7348V17.7188C81.7348 18.0644 81.7868 18.3295 81.891 18.5142C81.9999 18.6941 82.142 18.8172 82.3171 18.8835C82.4923 18.9498 82.6865 18.983 82.8995 18.983C83.0605 18.983 83.2073 18.9711 83.3399 18.9474C83.4772 18.9238 83.5814 18.9025 83.6524 18.8835L84.0856 20.8935C83.9483 20.9408 83.7518 20.9929 83.4961 21.0497C83.2452 21.1065 82.9374 21.1397 82.5728 21.1491C81.9289 21.1681 81.3489 21.071 80.8328 20.858C80.3167 20.6402 79.9071 20.304 79.6041 19.8494C79.3058 19.3949 79.159 18.8267 79.1637 18.1449V7.47727ZM90.7493 21.2131C89.6556 21.2131 88.711 20.9858 87.9155 20.5312C87.1248 20.072 86.5164 19.4233 86.0902 18.5852C85.6641 17.7424 85.451 16.7505 85.451 15.6094C85.451 14.4872 85.6641 13.5024 86.0902 12.6548C86.5211 11.8026 87.1224 11.1397 87.8942 10.6662C88.666 10.188 89.5727 9.94886 90.6144 9.94886C91.2867 9.94886 91.9212 10.0578 92.5178 10.2756C93.1191 10.4886 93.6494 10.8201 94.1087 11.2699C94.5727 11.7197 94.9373 12.2926 95.2024 12.9886C95.4676 13.6799 95.6002 14.5038 95.6002 15.4602V16.2486H86.6584V14.5156H93.1357C93.131 14.0232 93.0244 13.5852 92.8161 13.2017C92.6078 12.8134 92.3166 12.508 91.9425 12.2855C91.5732 12.063 91.1423 11.9517 90.6499 11.9517C90.1243 11.9517 89.6627 12.0795 89.2649 12.3352C88.8672 12.5862 88.5571 12.9176 88.3346 13.3295C88.1167 13.7367 88.0055 14.1842 88.0007 14.6719V16.1847C88.0007 16.8191 88.1167 17.3636 88.3488 17.8182C88.5808 18.268 88.9051 18.6136 89.3218 18.8551C89.7384 19.0919 90.2261 19.2102 90.7848 19.2102C91.1589 19.2102 91.4974 19.1581 91.8005 19.054C92.1035 18.9451 92.3663 18.7865 92.5888 18.5781C92.8113 18.3698 92.9794 18.1117 93.0931 17.804L95.4936 18.0739C95.3421 18.7083 95.0533 19.2623 94.6272 19.7358C94.2058 20.2045 93.666 20.5691 93.0078 20.8295C92.3497 21.0852 91.5969 21.2131 90.7493 21.2131ZM102.534 21.2131C101.445 21.2131 100.51 20.974 99.7284 20.4957C98.9519 20.0175 98.3529 19.357 97.9315 18.5142C97.5148 17.6667 97.3065 16.6913 97.3065 15.5881C97.3065 14.4801 97.5196 13.5024 97.9457 12.6548C98.3718 11.8026 98.9732 11.1397 99.7497 10.6662C100.531 10.188 101.454 9.94886 102.52 9.94886C103.405 9.94886 104.189 10.1122 104.87 10.4389C105.557 10.7609 106.104 11.2178 106.511 11.8097C106.918 12.3968 107.15 13.0833 107.207 13.8693H104.75C104.65 13.3437 104.414 12.9058 104.039 12.5554C103.67 12.2003 103.175 12.0227 102.555 12.0227C102.03 12.0227 101.568 12.1648 101.17 12.4489C100.772 12.7282 100.462 13.1307 100.24 13.6562C100.022 14.1818 99.913 14.8116 99.913 15.5455C99.913 16.2888 100.022 16.928 100.24 17.4631C100.458 17.9934 100.763 18.4029 101.156 18.6918C101.554 18.9759 102.02 19.1179 102.555 19.1179C102.934 19.1179 103.272 19.0469 103.571 18.9048C103.874 18.758 104.127 18.5473 104.331 18.2727C104.534 17.9981 104.674 17.6643 104.75 17.2713H107.207C107.146 18.0431 106.918 18.7273 106.525 19.3239C106.132 19.9157 105.597 20.3797 104.92 20.7159C104.243 21.0473 103.448 21.2131 102.534 21.2131ZM114.766 10.0909V12.0795H108.494V10.0909H114.766ZM110.043 7.47727H112.614V17.7188C112.614 18.0644 112.666 18.3295 112.77 18.5142C112.879 18.6941 113.021 18.8172 113.196 18.8835C113.371 18.9498 113.565 18.983 113.778 18.983C113.939 18.983 114.086 18.9711 114.219 18.9474C114.356 18.9238 114.46 18.9025 114.531 18.8835L114.965 20.8935C114.827 20.9408 114.631 20.9929 114.375 21.0497C114.124 21.1065 113.816 21.1397 113.452 21.1491C112.808 21.1681 112.228 21.071 111.712 20.858C111.196 20.6402 110.786 20.304 110.483 19.8494C110.185 19.3949 110.038 18.8267 110.043 18.1449V7.47727Z" fill="black"/>
</svg>
