<?xml version="1.0" standalone="no"?><!DOCTYPE svg PUBLIC "-//W3C//DTD SVG 1.1//EN" "http://www.w3.org/Graphics/SVG/1.1/DTD/svg11.dtd"><svg t="1718375098388" class="icon" viewBox="0 0 1024 1024" version="1.1" xmlns="http://www.w3.org/2000/svg" p-id="13607" xmlns:xlink="http://www.w3.org/1999/xlink" width="20" height="20"><path d="M512 0c282.76736 0 512 229.23264 512 512s-229.23264 512-512 512S0 794.76736 0 512 229.23264 0 512 0z m219.136 356.82304a38.42048 38.42048 0 0 0-54.31296 0.04096L448.3072 585.728l-101.21216-100.79232a38.4 38.4 0 0 0-54.19008 54.41536L421.2736 667.20768a38.4 38.4 0 0 0 54.272-0.07168l255.62112-256a38.37952 38.37952 0 0 0-0.04096-54.31296z" fill="#22c55e" p-id="13608"></path></svg>