<?xml version="1.0" standalone="no"?><!DOCTYPE svg PUBLIC "-//W3C//DTD SVG 1.1//EN" "http://www.w3.org/Graphics/SVG/1.1/DTD/svg11.dtd"><svg t="1718272337845" class="icon" viewBox="0 0 1024 1024" version="1.1" xmlns="http://www.w3.org/2000/svg" p-id="1455" xmlns:xlink="http://www.w3.org/1999/xlink" width="200" height="200"><path d="M512 347.52a85.76 85.76 0 1 0 82.56 85.76A85.76 85.76 0 0 0 512 347.52z" fill="#2c2c2c" p-id="1456"></path><path d="M512 64a448 448 0 1 0 448 448 448 448 0 0 0-448-448z m165.76 657.92a23.04 23.04 0 0 1-23.04-22.4 139.52 139.52 0 0 0-146.56-128 139.52 139.52 0 0 0-145.92 128 23.04 23.04 0 0 1-46.08 0 176.64 176.64 0 0 1 114.56-161.28A128 128 0 1 1 640 433.28a128 128 0 0 1-53.76 104.96 176 176 0 0 1 113.92 161.28 22.4 22.4 0 0 1-22.4 22.4z" fill="#2c2c2c" p-id="1457"></path></svg>