<svg t="1723705633289" class="icon" viewBox="0 0 1024 1024" version="1.1" xmlns="http://www.w3.org/2000/svg" p-id="9878" width="15" height="15"><path d="M512 342.016h64v180.010667l150.016 89.984-32 52.010666L512 554.026667V342.016zM553.984 128c212.010667 0 384 171.989333 384 384s-171.989333 384-384 384a377.6 377.6 0 0 1-269.994667-112l59.989334-61.994667c54.016 54.016 128 88.021333 210.005333 88.021334 166.016 0 299.989333-132.010667 299.989333-297.984s-134.016-297.984-299.989333-297.984S256 346.069333 256 512.042667h128l-171.989333 171.989333-4.010667-6.016L41.984 512h128c0-212.010667 171.989333-384 384-384z" fill="#000000" p-id="9879"></path></svg>