<svg width="17" height="17" viewBox="0 0 17 17" fill="none" xmlns="http://www.w3.org/2000/svg">
<path d="M15.2509 7.28216L12.0634 10.4697C11.9637 10.5693 11.8285 10.6253 11.6875 10.6253C11.5465 10.6253 11.4113 10.5693 11.3116 10.4697C11.212 10.37 11.156 10.2348 11.156 10.0938C11.156 9.95283 11.212 9.81763 11.3116 9.71794L13.5927 7.43755H10.957C9.66122 7.43719 8.40204 7.86754 7.3775 8.66092C6.35296 9.45429 5.62118 10.5657 5.29723 11.8204C5.262 11.9569 5.174 12.0738 5.05258 12.1454C4.93115 12.217 4.78626 12.2374 4.64977 12.2022C4.51327 12.167 4.39636 12.079 4.32475 11.9576C4.25315 11.8361 4.23271 11.6912 4.26793 11.5547C4.65017 10.0716 5.51488 8.75768 6.72588 7.81994C7.93689 6.8822 9.4254 6.37389 10.957 6.37505H13.594L11.3116 4.09466C11.2623 4.0453 11.2231 3.98671 11.1964 3.92221C11.1697 3.85772 11.156 3.7886 11.156 3.7188C11.156 3.649 11.1697 3.57988 11.1964 3.51539C11.2231 3.4509 11.2623 3.3923 11.3116 3.34294C11.4113 3.24326 11.5465 3.18726 11.6875 3.18726C11.7573 3.18726 11.8264 3.201 11.8909 3.22772C11.9554 3.25443 12.014 3.29358 12.0634 3.34294L15.2509 6.53044C15.3003 6.57978 15.3394 6.63837 15.3662 6.70286C15.3929 6.76736 15.4067 6.83649 15.4067 6.9063C15.4067 6.97612 15.3929 7.04525 15.3662 7.10974C15.3394 7.17423 15.3003 7.23282 15.2509 7.28216ZM12.75 13.8126H2.65625V5.8438C2.65625 5.7029 2.60028 5.56778 2.50065 5.46815C2.40102 5.36852 2.2659 5.31255 2.125 5.31255C1.9841 5.31255 1.84898 5.36852 1.74935 5.46815C1.64972 5.56778 1.59375 5.7029 1.59375 5.8438V14.3438C1.59375 14.4847 1.64972 14.6198 1.74935 14.7195C1.84898 14.8191 1.9841 14.8751 2.125 14.8751H12.75C12.8909 14.8751 13.026 14.8191 13.1257 14.7195C13.2253 14.6198 13.2812 14.4847 13.2812 14.3438C13.2812 14.2029 13.2253 14.0678 13.1257 13.9682C13.026 13.8685 12.8909 13.8126 12.75 13.8126Z" fill="black"/>
</svg>
