<svg width="22" height="22" viewBox="0 0 22 22" fill="none" xmlns="http://www.w3.org/2000/svg">
<path d="M7.7583 11.1926C7.7583 10.7746 7.4679 10.5249 6.95585 10.5249C6.74685 10.5249 6.6055 10.5453 6.53125 10.5651V11.9076C6.61925 11.9274 6.72705 11.9346 6.875 11.9346C7.42115 11.9346 7.7583 11.6579 7.7583 11.1926ZM10.9296 10.5381C10.7003 10.5381 10.5518 10.5585 10.4638 10.5788V13.5532C10.5518 13.5736 10.6931 13.5736 10.8212 13.5736C11.7519 13.5802 12.359 13.0676 12.359 11.9819C12.3662 11.0375 11.8129 10.5381 10.9296 10.5381Z" fill="black"/>
<path d="M17.0049 8.79066H16.632V6.99161L16.6287 6.95751C16.6291 6.88519 16.6035 6.81515 16.5567 6.76006L13.563 3.34126L13.5608 3.33906C13.5227 3.29789 13.4743 3.26769 13.4205 3.25161L13.4041 3.24611C13.3812 3.24019 13.3578 3.23723 13.3342 3.23731H5.97685C5.6408 3.23731 5.368 3.51066 5.368 3.84616V8.79066H4.9951C4.5144 8.79066 4.125 9.18006 4.125 9.66076V14.1862C4.125 14.6663 4.51495 15.0563 4.9951 15.0563H5.368V18.1544C5.368 18.4899 5.6408 18.7633 5.97685 18.7633H16.0231C16.3587 18.7633 16.632 18.4899 16.632 18.1544V15.0563H17.0049C17.4856 15.0563 17.875 14.6663 17.875 14.1862V9.66076C17.875 9.18006 17.4851 8.79066 17.0049 8.79066ZM5.97685 3.84616H13.0295V6.96136C13.0295 7.12966 13.1659 7.26551 13.3342 7.26551H16.0237V8.79066H5.97685V3.84616ZM13.4514 11.9477C13.4514 12.8178 13.1346 13.4184 12.6951 13.7891C12.2166 14.1867 11.4884 14.3759 10.5979 14.3759C10.065 14.3759 9.6877 14.3418 9.43085 14.3088V9.84336C9.8087 9.78286 10.301 9.74931 10.8207 9.74931C11.6837 9.74931 12.2436 9.90441 12.6819 10.235C13.1544 10.5853 13.4514 11.1452 13.4514 11.9477ZM5.51155 14.3292V9.84336C5.82835 9.78946 6.27385 9.74931 6.90085 9.74931C7.535 9.74931 7.9871 9.87086 8.29015 10.1134C8.58 10.3428 8.77525 10.7206 8.77525 11.1656C8.77525 11.6111 8.6273 11.9884 8.35725 12.2447C8.00635 12.5752 7.48715 12.7237 6.87995 12.7237C6.7452 12.7237 6.62365 12.7171 6.5296 12.7034V14.3292H5.51155ZM16.0231 17.9894H5.97685V15.0563H16.0231V17.9894ZM16.9053 10.626H15.158V11.665H16.7904V12.5015H15.158V14.3292H14.1267V9.78286H16.9053V10.626Z" fill="black"/>
</svg>
