<svg width="17" height="17" viewBox="0 0 17 17" fill="none" xmlns="http://www.w3.org/2000/svg">
<path d="M4.58984 6.25217L1.89242 8.50002L4.58984 10.7479C4.64499 10.792 4.69078 10.8467 4.72453 10.9088C4.75828 10.9708 4.77932 11.039 4.78641 11.1093C4.7935 11.1796 4.7865 11.2506 4.76582 11.3181C4.74514 11.3856 4.7112 11.4484 4.66598 11.5027C4.62076 11.5569 4.56518 11.6016 4.50247 11.6342C4.43976 11.6667 4.3712 11.6864 4.30079 11.6921C4.23038 11.6978 4.15954 11.6894 4.09241 11.6674C4.02528 11.6454 3.96322 11.6103 3.90984 11.564L0.722341 8.90775C0.66253 8.85789 0.614411 8.7955 0.581389 8.72498C0.548367 8.65447 0.53125 8.57755 0.53125 8.49969C0.53125 8.42182 0.548367 8.34491 0.581389 8.27439C0.614411 8.20387 0.66253 8.14148 0.722341 8.09162L3.90984 5.43537C4.01815 5.3452 4.15785 5.30174 4.29821 5.31457C4.43856 5.3274 4.56807 5.39545 4.65824 5.50377C4.74841 5.61208 4.79187 5.75178 4.77904 5.89213C4.76621 6.03248 4.69815 6.16199 4.58984 6.25217ZM16.2773 8.09162L13.0898 5.43537C13.0362 5.39072 12.9743 5.35707 12.9077 5.33634C12.841 5.31562 12.771 5.30822 12.7015 5.31457C12.632 5.32092 12.5644 5.3409 12.5026 5.37336C12.4409 5.40582 12.3861 5.45014 12.3414 5.50377C12.2513 5.61208 12.2078 5.75178 12.2206 5.89213C12.2335 6.03248 12.3015 6.16199 12.4098 6.25217L15.1073 8.50002L12.4098 10.7479C12.3547 10.792 12.3089 10.8467 12.2752 10.9088C12.2414 10.9708 12.2204 11.039 12.2133 11.1093C12.2062 11.1796 12.2132 11.2506 12.2339 11.3181C12.2545 11.3856 12.2885 11.4484 12.3337 11.5027C12.3789 11.5569 12.4345 11.6016 12.4972 11.6342C12.5599 11.6667 12.6285 11.6864 12.6989 11.6921C12.7693 11.6978 12.8401 11.6894 12.9073 11.6674C12.9744 11.6454 13.0365 11.6103 13.0898 11.564L16.2773 8.90775C16.3372 8.85789 16.3853 8.7955 16.4183 8.72498C16.4513 8.65447 16.4684 8.57755 16.4684 8.49969C16.4684 8.42182 16.4513 8.34491 16.4183 8.27439C16.3853 8.20387 16.3372 8.14148 16.2773 8.09162ZM10.8061 2.15689C10.7406 2.13308 10.6709 2.12242 10.6012 2.12552C10.5315 2.12862 10.4631 2.14542 10.3999 2.17496C10.3367 2.2045 10.2799 2.2462 10.2329 2.29767C10.1858 2.34915 10.1493 2.4094 10.1255 2.47498L5.87547 14.1625C5.85155 14.2281 5.84082 14.2978 5.84387 14.3676C5.84692 14.4373 5.86369 14.5058 5.89324 14.5691C5.92278 14.6324 5.96451 14.6892 6.01604 14.7364C6.06757 14.7835 6.12789 14.82 6.19355 14.8438C6.25174 14.8645 6.31307 14.8751 6.37484 14.875C6.48394 14.875 6.59039 14.8414 6.67974 14.7788C6.76908 14.7162 6.83699 14.6276 6.87422 14.5251L11.1242 2.83756C11.148 2.77198 11.1587 2.70235 11.1556 2.63265C11.1525 2.56296 11.1357 2.49455 11.1061 2.43134C11.0766 2.36814 11.0349 2.31137 10.9834 2.26428C10.932 2.21719 10.8717 2.1807 10.8061 2.15689Z" fill="black"/>
</svg>
