<svg width="25" height="18" viewBox="0 0 25 18" fill="none" xmlns="http://www.w3.org/2000/svg">
<path d="M13.4192 9.38143L9.56851 15.9763L5.71787 9.38143H13.4192ZM14.4508 8.79199H4.68213L9.56851 17.1428L14.4508 8.79199Z" fill="#263238"/>
<path d="M9.56809 0.647095L13.8656 7.9922H5.26221L9.56809 0.647095Z" fill="#4CAF4F"/>
<path d="M14.9722 9.5957L19.2739 17.1428H10.4658L14.8385 9.5957H14.9722Z" fill="#4CAF4F"/>
<path d="M16.321 9.10681L23.9577 9.06952L20.1071 15.739L16.321 9.10681ZM15.3001 8.51739L20.089 16.9246L24.9754 8.46107L15.3001 8.51739Z" fill="#263238"/>
<path d="M16.4287 8.05652L24.9696 8.12654L20.6678 0.714261L16.4287 8.05652Z" fill="#4CAF4F"/>
<path d="M18.7371 0.589438L14.8864 7.18436L11.0357 0.589438H18.7371ZM19.7686 0H10L14.8864 8.35086L19.7686 0Z" fill="#263238"/>
</svg>
