<svg width="30.871056241426615" height="24.096000000000004" viewBox="5.569272976680384 0 30.871056241426615 24.096000000000004" fill="none" xmlns="http://www.w3.org/2000/svg">
<path d="M18.7866 13.134L13.3956 22.3669L8.00473 13.134H18.7866ZM20.2308 12.3088H6.55469L13.3956 24L20.2308 12.3088Z" fill="#263238"></path>
<path d="M13.3954 0.905884L19.412 11.189H7.36719L13.3954 0.905884Z" fill="#4CAF4F"></path>
<path d="M20.9612 13.4341L26.9836 24H14.6523L20.7741 13.4341H20.9612Z" fill="#4CAF4F"></path>
<path d="M22.8498 12.7496L33.5411 12.6974L28.1502 22.0347L22.8498 12.7496ZM21.4205 11.9244L28.1248 23.6945L34.9658 11.8456L21.4205 11.9244Z" fill="#263238"></path>
<path d="M23 11.2792L34.9573 11.3772L28.9347 1.00001L23 11.2792Z" fill="#4CAF4F"></path>
<path d="M26.2319 0.825213L20.8409 10.0581L15.45 0.825213H26.2319ZM27.6761 0H14L20.8409 11.6912L27.6761 0Z" fill="#263238"></path>
</svg>